<svg width="914" height="400" fill="none" xmlns="http://www.w3.org/2000/svg">
  <path fill="#fff" d="M0 0h914v400H0z"/>
  <path d="M381.917 208.494c-.975.565-2.383.848-4.224.848-2.151 0-3.892-.652-5.223-1.955-1.331-1.304-1.996-2.985-1.996-5.045 0-2.379.711-4.252 2.133-5.619 1.431-1.377 3.34-2.065 5.728-2.065 1.65 0 2.844.219 3.582.656v3.665a4.92 4.92 0 00-3.021-1.012c-1.24 0-2.224.364-2.953 1.094-.72.72-1.08 1.718-1.08 2.994 0 1.239.346 2.215 1.039 2.925.692.702 1.645 1.053 2.857 1.053 1.076 0 2.128-.337 3.158-1.012v3.473zm8.956.848c-2.333 0-4.17-.652-5.51-1.955-1.331-1.313-1.996-3.09-1.996-5.332 0-2.315.693-4.125 2.078-5.428 1.386-1.313 3.259-1.969 5.619-1.969 2.325 0 4.148.656 5.469 1.969 1.322 1.303 1.983 3.031 1.983 5.182 0 2.324-.684 4.16-2.051 5.509-1.358 1.349-3.222 2.024-5.592 2.024zm.109-11.375c-1.02 0-1.813.351-2.379 1.053-.565.701-.847 1.695-.847 2.98 0 2.689 1.084 4.033 3.254 4.033 2.069 0 3.103-1.381 3.103-4.142 0-2.616-1.043-3.924-3.131-3.924zM414.28 209h-4.307v-7.779c0-2.17-.775-3.254-2.324-3.254-.747 0-1.363.287-1.846.861-.483.574-.724 1.304-.724 2.188V209h-4.321v-14h4.321v2.215h.054c1.03-1.705 2.53-2.557 4.498-2.557 3.099 0 4.649 1.923 4.649 5.77V209zm12.004-17.418a4.358 4.358 0 00-1.599-.328c-1.386 0-2.078.752-2.078 2.256V195h3.199v3.186h-3.199V209H418.3v-10.814h-2.352V195h2.352v-1.736c0-1.595.519-2.881 1.558-3.856 1.04-.975 2.452-1.463 4.239-1.463.875 0 1.604.091 2.187.274v3.363zM431.795 209h-4.321v-20.727h4.321V209zm16.379 0h-4.307v-2.133h-.068c-1.066 1.65-2.493 2.475-4.279 2.475-3.245 0-4.867-1.964-4.867-5.893V195h4.306v8.066c0 1.978.784 2.967 2.352 2.967.774 0 1.394-.269 1.859-.806.465-.547.697-1.286.697-2.215V195h4.307v14zm15.669-5.77h-9.133c.146 2.033 1.426 3.049 3.842 3.049 1.54 0 2.893-.364 4.06-1.093v3.117c-1.294.692-2.976 1.039-5.045 1.039-2.26 0-4.015-.625-5.264-1.873-1.248-1.258-1.873-3.008-1.873-5.25 0-2.324.675-4.166 2.024-5.524 1.349-1.358 3.008-2.037 4.976-2.037 2.042 0 3.619.606 4.731 1.819 1.121 1.212 1.682 2.857 1.682 4.935v1.818zm-4.006-2.652c0-2.005-.812-3.008-2.434-3.008-.693 0-1.294.287-1.805.862-.501.574-.806 1.289-.916 2.146h5.155zM479.374 209h-4.306v-7.779c0-2.17-.775-3.254-2.325-3.254-.747 0-1.362.287-1.845.861-.483.574-.725 1.304-.725 2.188V209h-4.32v-14h4.32v2.215h.055c1.03-1.705 2.529-2.557 4.498-2.557 3.099 0 4.648 1.923 4.648 5.77V209zm13.481-.506c-.975.565-2.383.848-4.224.848-2.151 0-3.892-.652-5.223-1.955-1.331-1.304-1.996-2.985-1.996-5.045 0-2.379.711-4.252 2.133-5.619 1.431-1.377 3.34-2.065 5.728-2.065 1.65 0 2.844.219 3.582.656v3.665a4.92 4.92 0 00-3.021-1.012c-1.24 0-2.224.364-2.953 1.094-.72.72-1.08 1.718-1.08 2.994 0 1.239.346 2.215 1.039 2.925.692.702 1.645 1.053 2.857 1.053 1.076 0 2.128-.337 3.158-1.012v3.473zm14.862-5.264h-9.133c.146 2.033 1.427 3.049 3.842 3.049 1.541 0 2.894-.364 4.061-1.093v3.117c-1.295.692-2.976 1.039-5.045 1.039-2.261 0-4.015-.625-5.264-1.873-1.249-1.258-1.873-3.008-1.873-5.25 0-2.324.675-4.166 2.024-5.524 1.348-1.358 3.007-2.037 4.976-2.037 2.042 0 3.619.606 4.731 1.819 1.121 1.212 1.681 2.857 1.681 4.935v1.818zm-4.006-2.652c0-2.005-.811-3.008-2.433-3.008-.693 0-1.295.287-1.805.862-.501.574-.807 1.289-.916 2.146h5.154z" fill="#333"/>
  <path d="M510.972 209.273c-.365 0-.675-.127-.93-.382a1.268 1.268 0 01-.383-.93c0-.374.123-.688.369-.943a1.28 1.28 0 01.944-.383c.182 0 .351.036.506.109.164.064.305.155.423.274a1.297 1.297 0 01.397.943c0 .182-.037.355-.11.519a1.427 1.427 0 01-.287.411 1.214 1.214 0 01-.423.273 1.173 1.173 0 01-.506.109zm16.352-1.353c0 2.598-.593 4.521-1.778 5.769-1.175 1.258-2.994 1.887-5.455 1.887a9.598 9.598 0 01-4.347-1.025v-1.778c1.522.848 2.971 1.272 4.347 1.272 3.655 0 5.483-1.932 5.483-5.797v-1.682h-.055c-1.075 1.842-2.716 2.762-4.922 2.762-.866 0-1.659-.159-2.379-.478a5.142 5.142 0 01-1.832-1.381c-.51-.602-.907-1.331-1.189-2.188-.283-.866-.424-1.841-.424-2.926 0-1.148.15-2.192.451-3.13.301-.948.729-1.76 1.285-2.434a5.69 5.69 0 012.01-1.559c.793-.373 1.682-.56 2.666-.56 1.978 0 3.423.802 4.334 2.406h.055V195h1.75v12.92zm-1.75-7.424a4.37 4.37 0 00-1.19-3.021 4.098 4.098 0 00-1.34-.93 3.973 3.973 0 00-1.695-.356c-.729 0-1.39.142-1.982.424a4.356 4.356 0 00-1.504 1.203c-.41.52-.729 1.153-.957 1.901-.219.738-.328 1.572-.328 2.502 0 .857.104 1.631.314 2.324.21.693.506 1.281.889 1.764a4 4 0 001.381 1.121 4.124 4.124 0 001.818.396c.693 0 1.322-.123 1.887-.369a4.383 4.383 0 001.449-1.039c.401-.447.711-.966.93-1.559a5.65 5.65 0 00.328-1.941v-2.42zm11.43 8.832c-1.039 0-1.973-.173-2.803-.519a6.04 6.04 0 01-2.105-1.463 6.534 6.534 0 01-1.34-2.284c-.31-.884-.465-1.863-.465-2.939 0-1.167.164-2.21.492-3.131.328-.92.793-1.7 1.395-2.338a6.008 6.008 0 012.201-1.476c.857-.338 1.814-.506 2.871-.506 1.012 0 1.923.168 2.734.506.812.328 1.5.806 2.065 1.435s.998 1.395 1.299 2.297c.301.902.451 1.928.451 3.076 0 1.094-.16 2.092-.479 2.994a6.653 6.653 0 01-1.339 2.311 5.981 5.981 0 01-2.133 1.504c-.839.355-1.787.533-2.844.533zm.137-13.139c-.766 0-1.459.133-2.078.397a4.39 4.39 0 00-1.6 1.162c-.437.501-.775 1.121-1.012 1.859-.237.73-.355 1.559-.355 2.489 0 .875.118 1.663.355 2.365.237.702.57 1.303.998 1.805.438.501.966.888 1.586 1.162.62.264 1.313.396 2.078.396.784 0 1.477-.127 2.079-.383a4.205 4.205 0 001.531-1.134c.419-.502.734-1.112.943-1.832.219-.72.328-1.541.328-2.461 0-1.887-.419-3.327-1.258-4.321-.838-1.002-2.037-1.504-3.595-1.504z" fill="#555"/>
</svg>
