<svg width="914" height="400" fill="none" xmlns="http://www.w3.org/2000/svg"><style>#CL0 {fill: #00ACD7;}#CL1 {fill: #333;}@media (prefers-color-scheme: dark) {#CL0 {fill: #00ACD7;}#CL1 {fill: #EEE;}}</style><path d="M363.243 208.28c-1.363 0-2.557-.252-3.584-.756-1.027-.523-1.82-1.241-2.38-2.156-.56-.933-.84-2.016-.84-3.248v-3.64c0-1.251.28-2.333.84-3.248.56-.915 1.353-1.624 2.38-2.128 1.027-.523 2.221-.784 3.584-.784 2.035 0 3.659.513 4.872 1.54 1.213 1.027 1.857 2.427 1.932 4.2h-4.088c-.056-.653-.336-1.167-.84-1.54-.485-.373-1.111-.56-1.876-.56-.84 0-1.484.215-1.932.644-.448.429-.672 1.055-.672 1.876v3.64c0 .803.224 1.428.672 1.876.448.429 1.092.644 1.932.644.765 0 1.391-.177 1.876-.532.504-.373.784-.896.84-1.568h4.088c-.075 1.773-.719 3.173-1.932 4.2-1.213 1.027-2.837 1.54-4.872 1.54Zm15.417 0c-1.363 0-2.548-.252-3.556-.756-1.008-.523-1.792-1.241-2.352-2.156-.541-.933-.812-2.016-.812-3.248v-3.64c0-1.232.271-2.305.812-3.22a5.598 5.598 0 0 1 2.352-2.156c1.008-.523 2.193-.784 3.556-.784 1.381 0 2.567.261 3.556.784 1.008.504 1.783 1.223 2.324 2.156.56.915.84 1.988.84 3.22v3.64c0 1.232-.28 2.315-.84 3.248-.541.915-1.316 1.633-2.324 2.156-.989.504-2.175.756-3.556.756Zm0-3.64c.821 0 1.447-.215 1.876-.644.429-.448.644-1.073.644-1.876v-3.64c0-.821-.215-1.447-.644-1.876-.429-.429-1.055-.644-1.876-.644-.803 0-1.428.215-1.876.644-.429.429-.644 1.055-.644 1.876v3.64c0 .803.215 1.428.644 1.876.448.429 1.073.644 1.876.644Zm9.117 3.36v-15.4h4.06v2.94h1.232l-1.372.98c.019-1.251.42-2.259 1.204-3.024.803-.784 1.83-1.176 3.08-1.176 1.494 0 2.688.523 3.584 1.568.915 1.045 1.372 2.436 1.372 4.172V208h-4.2v-9.52c0-.803-.214-1.419-.644-1.848-.41-.448-.989-.672-1.736-.672-.746 0-1.334.224-1.764.672-.41.429-.616 1.045-.616 1.848V208h-4.2Zm19.141 0v-9.52h-4.088v-3.78h4.088v-2.38c0-1.437.486-2.585 1.456-3.444.99-.877 2.278-1.316 3.864-1.316h4.508v3.64h-4.368c-.373 0-.681.121-.924.364-.224.224-.336.523-.336.896v2.24h5.628v3.78h-5.628V208h-4.2Zm21.409 0c-1.082 0-2.034-.224-2.856-.672a5.064 5.064 0 0 1-1.932-1.932c-.448-.821-.672-1.773-.672-2.856v-11.2h-4.9v-3.78h9.1v14.84c0 .541.15.98.448 1.316.318.336.728.504 1.232.504h4.34V208h-4.76Zm13.009.28c-2.072 0-3.696-.56-4.872-1.68-1.157-1.12-1.736-2.651-1.736-4.592V192.6h4.2v9.38c0 .859.206 1.521.616 1.988.411.448 1.008.672 1.792.672.766 0 1.354-.224 1.764-.672.43-.467.644-1.129.644-1.988v-9.38h4.2v9.408c0 1.96-.588 3.5-1.764 4.62-1.176 1.101-2.79 1.652-4.844 1.652Zm15.697 0c-1.362 0-2.557-.252-3.584-.756-1.008-.523-1.792-1.241-2.352-2.156-.541-.933-.812-2.016-.812-3.248v-3.64c0-1.232.271-2.305.812-3.22a5.598 5.598 0 0 1 2.352-2.156c1.027-.523 2.222-.784 3.584-.784 1.363 0 2.539.261 3.528.784 1.008.504 1.783 1.223 2.324 2.156.56.915.84 1.988.84 3.22v2.856h-9.436v.784c0 .971.224 1.68.672 2.128.467.448 1.158.672 2.072.672.598 0 1.12-.093 1.568-.28.448-.187.71-.467.784-.84h4.116c-.298 1.344-1.036 2.427-2.212 3.248-1.176.821-2.594 1.232-4.256 1.232Zm2.688-9.156v-.7c0-.952-.224-1.689-.672-2.212-.429-.523-1.101-.784-2.016-.784-.914 0-1.605.271-2.072.812-.448.541-.672 1.288-.672 2.24v.364l5.712-.056-.28.336Zm6.402 8.876v-15.4h4.06v2.94h1.232l-1.372.98c.018-1.251.42-2.259 1.204-3.024.802-.784 1.829-1.176 3.08-1.176 1.493 0 2.688.523 3.584 1.568.914 1.045 1.372 2.436 1.372 4.172V208h-4.2v-9.52c0-.803-.215-1.419-.644-1.848-.411-.448-.99-.672-1.736-.672-.747 0-1.335.224-1.764.672-.411.429-.616 1.045-.616 1.848V208h-4.2Zm22.473.28c-1.363 0-2.558-.252-3.584-.756-1.027-.523-1.82-1.241-2.38-2.156-.56-.933-.84-2.016-.84-3.248v-3.64c0-1.251.28-2.333.84-3.248.56-.915 1.353-1.624 2.38-2.128 1.026-.523 2.221-.784 3.584-.784 2.034 0 3.658.513 4.872 1.54 1.213 1.027 1.857 2.427 1.932 4.2h-4.088c-.056-.653-.336-1.167-.84-1.54-.486-.373-1.111-.56-1.876-.56-.84 0-1.484.215-1.932.644-.448.429-.672 1.055-.672 1.876v3.64c0 .803.224 1.428.672 1.876.448.429 1.092.644 1.932.644.765 0 1.39-.177 1.876-.532.504-.373.784-.896.84-1.568h4.088c-.075 1.773-.719 3.173-1.932 4.2-1.214 1.027-2.838 1.54-4.872 1.54Zm15.445 0c-1.363 0-2.558-.252-3.584-.756-1.008-.523-1.792-1.241-2.352-2.156-.542-.933-.812-2.016-.812-3.248v-3.64c0-1.232.27-2.305.812-3.22a5.598 5.598 0 0 1 2.352-2.156c1.026-.523 2.221-.784 3.584-.784 1.362 0 2.538.261 3.528.784 1.008.504 1.782 1.223 2.324 2.156.56.915.84 1.988.84 3.22v2.856h-9.436v.784c0 .971.224 1.68.672 2.128.466.448 1.157.672 2.072.672.597 0 1.12-.093 1.568-.28.448-.187.709-.467.784-.84h4.116c-.299 1.344-1.036 2.427-2.212 3.248-1.176.821-2.595 1.232-4.256 1.232Zm2.688-9.156v-.7c0-.952-.224-1.689-.672-2.212-.43-.523-1.102-.784-2.016-.784-.915 0-1.606.271-2.072.812-.448.541-.672 1.288-.672 2.24v.364l5.712-.056-.28.336Z" id="CL1"/><path d="M519.682 208.28c-.71 0-1.288-.215-1.736-.644-.43-.429-.644-.98-.644-1.652 0-.709.214-1.288.644-1.736.448-.448 1.026-.672 1.736-.672.709 0 1.278.224 1.708.672.448.448.672 1.027.672 1.736 0 .672-.224 1.223-.672 1.652-.43.429-.999.644-1.708.644Zm11.721 4.76v-2.464h4.34c.84 0 1.512-.243 2.016-.728.504-.467.756-1.111.756-1.932v-1.288l.056-2.66h-.028c-.187.952-.644 1.689-1.372 2.212-.71.523-1.624.784-2.744.784-1.587 0-2.838-.504-3.752-1.512-.915-1.027-1.372-2.427-1.372-4.2v-3.164c0-1.773.457-3.173 1.372-4.2.914-1.045 2.165-1.568 3.752-1.568 1.082 0 1.978.261 2.688.784.728.523 1.194 1.241 1.4 2.156h.028v-2.66h2.716v15.344c0 1.568-.495 2.809-1.484 3.724-.99.915-2.334 1.372-4.032 1.372h-4.34Zm3.892-8.4c.989 0 1.773-.308 2.352-.924.578-.616.868-1.484.868-2.604v-2.884c0-1.101-.29-1.96-.868-2.576-.579-.616-1.363-.924-2.352-.924-1.027 0-1.82.299-2.38.896-.56.579-.84 1.372-.84 2.38v3.36c0 1.008.28 1.811.84 2.408.56.579 1.353.868 2.38.868Zm15.725 3.584c-1.885 0-3.388-.541-4.508-1.624-1.101-1.083-1.652-2.595-1.652-4.536v-3.528c0-1.941.551-3.453 1.652-4.536 1.12-1.083 2.623-1.624 4.508-1.624 1.885 0 3.379.541 4.48 1.624 1.12 1.083 1.68 2.595 1.68 4.536v3.528c0 1.941-.56 3.453-1.68 4.536-1.101 1.083-2.595 1.624-4.48 1.624Zm0-2.436c1.045 0 1.867-.289 2.464-.868.616-.597.924-1.465.924-2.604v-4.032c0-1.139-.308-1.997-.924-2.576-.597-.597-1.419-.896-2.464-.896s-1.876.299-2.492.896c-.597.579-.896 1.437-.896 2.576v4.032c0 1.139.299 2.007.896 2.604.616.579 1.447.868 2.492.868Z" id="CL0"/></svg>